<svg width="24" height="24" viewBox="0 0 24 24" fill="none" xmlns="http://www.w3.org/2000/svg">
<path d="M20.9332 14.0339C22.1104 9.04592 19.0212 4.04796 14.0332 2.87068C9.04518 1.6934 4.04721 4.78261 2.86994 9.77063C1.69266 14.7587 4.78187 19.7566 9.76989 20.9339C14.7579 22.1112 19.7559 19.022 20.9332 14.0339Z" fill="#3E5BF2"/>
<path d="M12 0C9.62663 0 7.30655 0.703788 5.33316 2.02236C3.35977 3.34094 1.8217 5.21508 0.913451 7.4078C0.00519943 9.60051 -0.232441 12.0133 0.230582 14.3411C0.693605 16.6689 1.83649 18.807 3.51472 20.4853C5.19295 22.1635 7.33115 23.3064 9.65892 23.7694C11.9867 24.2324 14.3995 23.9948 16.5922 23.0865C18.7849 22.1783 20.6591 20.6402 21.9776 18.6668C23.2962 16.6934 24 14.3734 24 12C23.9995 8.81756 22.735 5.76561 20.4847 3.51529C18.2344 1.26497 15.1824 0.00051827 12 0ZM12 22.0883C10.0064 22.0871 8.05786 21.495 6.40072 20.3866C4.74357 19.2783 3.45219 17.7036 2.6898 15.8615C1.92742 14.0194 1.72824 11.9927 2.11746 10.0374C2.50668 8.08219 3.46682 6.28621 4.87652 4.87651C6.28622 3.46682 8.0822 2.50668 10.0374 2.11746C11.9927 1.72824 14.0195 1.92741 15.8615 2.6898C17.7036 3.45219 19.2783 4.74357 20.3867 6.40071C21.495 8.05786 22.0871 10.0064 22.0883 12C22.0867 14.6751 21.0234 17.2402 19.1318 19.1318C17.2402 21.0234 14.6751 22.0867 12 22.0883Z" fill="#3E5BF2"/>
<path d="M13.0776 11.1183H14.6939V12.3918H13.0776V18.1224H11.2457C10.3119 16.8206 9.84493 15.8584 9.84493 15.2359C9.84493 14.4435 10.2041 14.0473 10.9225 14.0473H11.4613V12.3918H9.30615V11.1183H11.4613V9.83635C11.4613 9.2364 10.7429 8.87983 9.30615 8.76663C10.3981 7.61202 11.138 6.48571 11.5259 5.3877L12.6789 5.99896C13.1889 6.27063 13.6559 6.40647 14.0797 6.40647C14.2952 6.40647 14.4999 6.36968 14.6939 6.2961C14.6939 7.04887 14.4712 7.47902 14.0258 7.58655C13.9181 7.61485 13.7995 7.629 13.6702 7.629C13.2751 7.629 12.7938 7.49316 12.2263 7.22149L11.6337 8.18084C12.5963 8.51477 13.0776 9.06661 13.0776 9.83635V11.1183Z" fill="white"/>
</svg>
