<svg width="66" height="66" viewBox="0 0 66 66" fill="none" xmlns="http://www.w3.org/2000/svg">
<rect width="66" height="66" rx="33" fill="#D9D9D9"/>
<rect x="4" y="4" width="58" height="58" rx="29" fill="#477BEA"/>
<path fill-rule="evenodd" clip-rule="evenodd" d="M20.75 22.9375C19.4736 22.9375 18.2496 23.4445 17.347 24.347C16.4445 25.2496 15.9375 26.4736 15.9375 27.75V43.5C15.9375 44.7764 16.4445 46.0004 17.347 46.903C18.2496 47.8055 19.4736 48.3125 20.75 48.3125H45.25C46.5264 48.3125 47.7504 47.8055 48.653 46.903C49.5555 46.0004 50.0625 44.7764 50.0625 43.5V27.75C50.0625 26.4736 49.5555 25.2496 48.653 24.347C47.7504 23.4445 46.5264 22.9375 45.25 22.9375H20.75ZM40.875 33.4375C40.2948 33.4375 39.7384 33.668 39.3282 34.0782C38.918 34.4884 38.6875 35.0448 38.6875 35.625C38.6875 36.2052 38.918 36.7616 39.3282 37.1718C39.7384 37.582 40.2948 37.8125 40.875 37.8125C41.4552 37.8125 42.0116 37.582 42.4218 37.1718C42.832 36.7616 43.0625 36.2052 43.0625 35.625C43.0625 35.0448 42.832 34.4884 42.4218 34.0782C42.0116 33.668 41.4552 33.4375 40.875 33.4375Z" fill="#559DFF"/>
<path d="M40.8488 17.3707C41.3669 17.2326 41.9098 17.2155 42.4357 17.3205C42.9615 17.4256 43.4562 17.65 43.8815 17.9766C44.3068 18.3031 44.6514 18.723 44.8887 19.2039C45.126 19.6848 45.2496 20.2137 45.25 20.75H27.75L40.8488 17.3707Z" fill="#A1BFEC"/>
</svg>
