<svg width="32" height="32" viewBox="0 0 32 32" fill="none" xmlns="http://www.w3.org/2000/svg">
<path d="M15.9998 3.1665C23.0872 3.1665 28.8336 8.91201 28.8337 15.9995C28.8337 23.0871 23.0873 28.8335 15.9998 28.8335C8.91225 28.8333 3.16675 23.087 3.16675 15.9995C3.16692 8.91211 8.91236 3.16668 15.9998 3.1665Z" fill="url(#paint0_linear_1006_21660)" stroke="#FF9900"/>
<g filter="url(#filter0_d_1006_21660)">
<path d="M25.4756 14.3999H21.3333" stroke="#FF9900" stroke-linecap="round"/>
<path d="M24.2747 12.7998L25.5918 14.117C25.748 14.2732 25.748 14.5264 25.5918 14.6826L24.2747 15.9998" stroke="#FF9900" stroke-linecap="round"/>
</g>
<path d="M16.0003 14.4761C17.7223 14.4761 19.1183 13.1457 19.1183 11.5046C19.1183 9.86356 17.7223 8.5332 16.0003 8.5332C14.2783 8.5332 12.8824 9.86356 12.8824 11.5046C12.8824 13.1457 14.2783 14.4761 16.0003 14.4761Z" fill="white"/>
<path d="M16.0003 14.4761C13.0548 14.4761 10.6667 17.2768 10.6667 20.7317C10.6667 21.653 11.3035 22.3999 12.089 22.3999H19.9112C20.6967 22.3999 21.3334 21.653 21.3334 20.7317C21.3334 17.2768 18.9458 14.4761 16.0003 14.4761Z" fill="white"/>
<defs>
<filter id="filter0_d_1006_21660" x="16.8333" y="12.2998" width="13.3757" height="12.2002" filterUnits="userSpaceOnUse" color-interpolation-filters="sRGB">
<feFlood flood-opacity="0" result="BackgroundImageFix"/>
<feColorMatrix in="SourceAlpha" type="matrix" values="0 0 0 0 0 0 0 0 0 0 0 0 0 0 0 0 0 0 127 0" result="hardAlpha"/>
<feOffset dy="4"/>
<feGaussianBlur stdDeviation="2"/>
<feComposite in2="hardAlpha" operator="out"/>
<feColorMatrix type="matrix" values="0 0 0 0 0 0 0 0 0 0 0 0 0 0 0 0 0 0 0.25 0"/>
<feBlend mode="normal" in2="BackgroundImageFix" result="effect1_dropShadow_1006_21660"/>
<feBlend mode="normal" in="SourceGraphic" in2="effect1_dropShadow_1006_21660" result="shape"/>
</filter>
<linearGradient id="paint0_linear_1006_21660" x1="16.0001" y1="2.6665" x2="16.0001" y2="29.3332" gradientUnits="userSpaceOnUse">
<stop stop-color="#3075DA"/>
<stop offset="1" stop-color="#31496E"/>
</linearGradient>
</defs>
</svg>
