<svg width="18" height="15" viewBox="0 0 18 15" fill="none" xmlns="http://www.w3.org/2000/svg">
<path d="M14.8237 3.44871H13.9917V2.66649C13.9917 2.04412 13.7287 1.44723 13.2606 1.00715C12.7925 0.567062 12.1577 0.319824 11.4957 0.319824H3.17569C2.51371 0.319824 1.87884 0.567062 1.41075 1.00715C0.942658 1.44723 0.679688 2.04412 0.679688 2.66649V12.0532C0.679688 12.6755 0.942658 13.2724 1.41075 13.7125C1.87884 14.1526 2.51371 14.3998 3.17569 14.3998H14.8237C15.4857 14.3998 16.1205 14.1526 16.5886 13.7125C17.0567 13.2724 17.3197 12.6755 17.3197 12.0532V5.79538C17.3197 5.17301 17.0567 4.57612 16.5886 4.13604C16.1205 3.69595 15.4857 3.44871 14.8237 3.44871ZM3.17569 1.88427H11.4957C11.7163 1.88427 11.928 1.96668 12.084 2.11338C12.24 2.26007 12.3277 2.45903 12.3277 2.66649V3.44871H3.17569C2.95503 3.44871 2.74341 3.3663 2.58737 3.21961C2.43134 3.07291 2.34369 2.87395 2.34369 2.66649C2.34369 2.45903 2.43134 2.26007 2.58737 2.11338C2.74341 1.96668 2.95503 1.88427 3.17569 1.88427ZM15.6557 9.70649H14.8237C14.603 9.70649 14.3914 9.62408 14.2354 9.47738C14.0793 9.33069 13.9917 9.13173 13.9917 8.92427C13.9917 8.71681 14.0793 8.51785 14.2354 8.37115C14.3914 8.22446 14.603 8.14205 14.8237 8.14205H15.6557V9.70649ZM15.6557 6.5776H14.8237C14.1617 6.5776 13.5268 6.82484 13.0587 7.26492C12.5907 7.70501 12.3277 8.30189 12.3277 8.92427C12.3277 9.54664 12.5907 10.1435 13.0587 10.5836C13.5268 11.0237 14.1617 11.2709 14.8237 11.2709H15.6557V12.0532C15.6557 12.2606 15.568 12.4596 15.412 12.6063C15.256 12.753 15.0443 12.8354 14.8237 12.8354H3.17569C2.95503 12.8354 2.74341 12.753 2.58737 12.6063C2.43134 12.4596 2.34369 12.2606 2.34369 12.0532V4.88018C2.61098 4.96858 2.89234 5.01355 3.17569 5.01316H14.8237C15.0443 5.01316 15.256 5.09557 15.412 5.24227C15.568 5.38896 15.6557 5.58792 15.6557 5.79538V6.5776Z" fill="white"/>
</svg>
